/* XPM */
static char *_____________[] = {
/* columns rows colors chars-per-pixel */
"16 16 183 2",
"   c #C71338",
".  c #EB620D",
"X  c #EC620D",
"o  c #EC630D",
"O  c #EC630E",
"+  c #EC650C",
"@  c #EC640D",
"#  c #EC670C",
"$  c #EC650E",
"%  c #EE700A",
"&  c #EE720A",
"*  c #EC6410",
"=  c #EC6712",
"-  c #EC6716",
";  c #EA6B14",
":  c #EC6A1A",
">  c #EB6C1E",
",  c #ED6D1D",
"<  c #ED6D1E",
"1  c #ED7012",
"2  c #EC7512",
"3  c #EE782E",
"4  c #EC7C37",
"5  c #D31643",
"6  c #C12644",
"7  c #D83E62",
"8  c #BF475C",
"9  c #BD6573",
"0  c #DA466A",
"q  c #76B52A",
"w  c #76B42B",
"e  c #78B52D",
"r  c #80B923",
"t  c #81BA35",
"y  c #82BB3E",
"u  c #F28905",
"i  c #F1860E",
"p  c #F18A0E",
"a  c #F8AE09",
"s  c #F6AD13",
"d  c #EE823F",
"f  c #98C11D",
"g  c #A7C71C",
"h  c #B9CD13",
"j  c #97C331",
"k  c #C3D21E",
"l  c #EF8645",
"z  c #EF8746",
"x  c #F09255",
"c  c #F4A56F",
"v  c #EDA97F",
"b  c #F2A373",
"n  c #91C256",
"m  c #99C760",
"M  c #A0C96D",
"N  c #CCDA48",
"B  c #FAC35D",
"V  c #FCD05A",
"C  c #CEDF6C",
"Z  c #D2E076",
"A  c #0075A6",
"S  c #0176A7",
"D  c #0678A8",
"F  c #1582AF",
"G  c #0882B3",
"H  c #0984B5",
"J  c #0A86B7",
"K  c #1386B5",
"L  c #1E85B0",
"P  c #138CBB",
"I  c #2C8CB4",
"U  c #1594C4",
"Y  c #1596C6",
"T  c #1798C7",
"R  c #1899C9",
"E  c #21A7D6",
"W  c #21A8D7",
"Q  c #22AAD9",
"!  c #3CAAD3",
"~  c #30B0DD",
"^  c #33BAE7",
"/  c #3EBCE7",
"(  c #5BBCDF",
")  c #64AAC8",
"_  c #68ACCA",
"`  c #73BEDA",
"'  c #60C9EC",
"]  c #BE828C",
"[  c #E9AD8A",
"{  c #F5B38A",
"}  c #E8B99D",
"|  c #F3B793",
" . c #F6B791",
".. c #F0B897",
"X. c #F4BD9C",
"o. c #E394A6",
"O. c #C1A3A9",
"+. c #EBA0B2",
"@. c #ABCD80",
"#. c #F8C18F",
"$. c #F4C3A5",
"%. c #E2C9BB",
"&. c #C9E2AB",
"*. c #D9E7A2",
"=. c #CEE3B5",
"-. c #DEEBB4",
";. c #FDE7AE",
":. c #ECB9C5",
">. c #90C5DA",
",. c #81D2EE",
"<. c #9CD0E4",
"1. c #ABD0E0",
"2. c #CACACB",
"3. c #CCCDCF",
"4. c #CDCFD0",
"5. c #D1D2D4",
"6. c #D3D3D5",
"7. c #D5D5D9",
"8. c #D8D9DB",
"9. c #DAD9DB",
"0. c #DBDCDE",
"q. c #F3D5C4",
"w. c #F9D7C2",
"e. c #ECD4DA",
"r. c #F3DDD1",
"t. c #DEEDC5",
"y. c #DFE0DF",
"u. c #FEF0C9",
"i. c #FBE5D8",
"p. c #EAF3D4",
"a. c #F2F6D0",
"s. c #C0DBE7",
"d. c #C5E0EC",
"f. c #CDE4EE",
"g. c #D5F2FB",
"h. c #DFF3FA",
"j. c #E1E1E3",
"k. c #E4E3E5",
"l. c #EFE7E4",
"z. c #EBE6E9",
"x. c #E9E9EA",
"c. c #ECEDEC",
"v. c #FDEDE3",
"b. c #F6E3E8",
"n. c #F6EDE8",
"m. c #F6EBEE",
"M. c #F6EFEC",
"N. c #EBF2E3",
"B. c #FAF1EC",
"V. c #FCF5EF",
"C. c #FFF9EB",
"Z. c #FEF9ED",
"A. c #E5EFF4",
"S. c #EFF4F6",
"D. c #EEF4F7",
"F. c #E6F7FC",
"G. c #EBF7FB",
"H. c #EBF8FC",
"J. c #EEF8FC",
"K. c #EEFAFE",
"L. c #F3F5F1",
"P. c #F3F4F3",
"I. c #F3F3F5",
"U. c #F6F6F7",
"Y. c #FAF7F5",
"T. c #F8FBF6",
"R. c #FAFDF7",
"E. c #F2FBFE",
"W. c #F8F8F9",
"Q. c #FAFAFB",
"!. c #FFFCF9",
"~. c #FEFCFB",
"^. c #FEFFFB",
"/. c #FBFCFD",
"(. c #F9FCFE",
"). c #FBFDFE",
"_. c #FCFCFC",
"`. c #FDFDFD",
"'. c #FDFEFE",
"]. c #FEFEFE",
"[. c #FFFFFE",
"{. c #FFFFFF",
"}. c None",
/* pixels */
"}.}.}.}.}.h k N Z *.p.}.}.}.}.}.",
"}.}.}.f g C a.R.F.g.K.{.{.}.}.}.",
"}.}.r j -.^.H.,./ ^ ' E.{.Z.}.}.",
"}.w t t.{.G.( Q W Q ~ h.{.C.;.}.",
"}.w &.{./.` U U T R ! J.{.u.V }.",
"e n T.{.s.K G H H P <.{.^.B a s ",
"e =.{.{._ S S S F >.).!.#.i u p ",
"y N./.D.I D L ) f.{.v.c ; % & 2 ",
"n L.W.S.1.s.A.T.i.{ 3 @ @ # # ; ",
"M P.U.n.$.| b l < @ X X @ @ = x ",
"@.c.I.r.: X X X . X X X X <  .V.",
"}.y.z.l.4 X X X X X X * l w.^.}.",
"}.7.8.j.} > . X X - d X.B.b.:.}.",
"}.}.4.6.9.%.[ v ..q.M.m.+.0 }.}.",
"}.}.}.2.3.6.0.k.z.e.o.7 5 }.}.}.",
"}.}.}.}.}.O.] 9 8 6   }.}.}.}.}."
};
