/* XPM */
static char *_____________[] = {
/* columns rows colors chars-per-pixel */
"32 32 256 2",
"   c #AD1C32",
".  c #BA1736",
"X  c #B31832",
"o  c #BE1A3C",
"O  c #AA2738",
"+  c #C2062E",
"@  c #C30C32",
"#  c #CE0936",
"$  c #CD0533",
"%  c #D20A39",
"&  c #D2113E",
"*  c #EB630E",
"=  c #ED6B0B",
"-  c #EF7509",
";  c #EF7A08",
":  c #F07E07",
">  c #EB6512",
",  c #EB6816",
"<  c #EB6B1A",
"1  c #ED7114",
"2  c #EF7D16",
"3  c #EB731C",
"4  c #ED7D1A",
"5  c #EB6F23",
"6  c #EC7227",
"7  c #EC752C",
"8  c #ED782F",
"9  c #ED7A32",
"0  c #ED7D39",
"q  c #AC3747",
"w  c #CA1941",
"e  c #D01C45",
"r  c #D11F48",
"t  c #C12644",
"y  c #D02148",
"u  c #D92651",
"i  c #D92F57",
"p  c #C65268",
"a  c #D85A76",
"s  c #77B51E",
"d  c #7DB71B",
"f  c #72B223",
"g  c #7BB626",
"h  c #76B42B",
"j  c #78B62E",
"k  c #7AB633",
"l  c #7EB836",
"z  c #8ABB17",
"x  c #84BA1A",
"c  c #90BE15",
"v  c #86BA21",
"b  c #82BC3C",
"n  c #F18107",
"m  c #F38B0A",
"M  c #F39004",
"N  c #F69E03",
"B  c #EE871A",
"V  c #F0941C",
"C  c #F7A502",
"Z  c #FAB80C",
"A  c #F9B912",
"S  c #FABA1E",
"D  c #EC8037",
"F  c #96C013",
"G  c #9CC210",
"H  c #A8C60C",
"J  c #AEC90C",
"K  c #BCCE06",
"L  c #B8CC08",
"P  c #A2C414",
"I  c #B4CB10",
"U  c #B4CB1C",
"Y  c #BCCE14",
"T  c #94C021",
"R  c #A9C920",
"E  c #A3C629",
"W  c #B3CC26",
"Q  c #BED32F",
"!  c #B3CD36",
"~  c #C4CF19",
"^  c #C2D013",
"/  c #C2D21A",
"(  c #FBC638",
")  c #88BE46",
"_  c #EC8242",
"`  c #EE8B4E",
"'  c #F08641",
"]  c #ED8C50",
"[  c #F08E52",
"{  c #EF9057",
"}  c #F09157",
"|  c #F1955C",
" . c #ED9E6E",
".. c #F29A63",
"X. c #F8BF69",
"o. c #E8A67E",
"O. c #F5AC78",
"+. c #93C556",
"@. c #ABCD41",
"#. c #B1CD49",
"$. c #ACCF5A",
"%. c #9AC763",
"&. c #99C861",
"*. c #A5CD61",
"=. c #A9CF7B",
"-. c #CFDC4D",
";. c #FBC841",
":. c #F8CA48",
">. c #FCD66E",
",. c #FCD97A",
"<. c #0074A6",
"1. c #0177A8",
"2. c #047BAC",
"3. c #107DAB",
"4. c #067FB0",
"5. c #D96881",
"6. c #CA7E8C",
"7. c #E4728D",
"8. c #1081AF",
"9. c #1A83AF",
"0. c #0781B2",
"q. c #0984B5",
"w. c #0B87B8",
"e. c #0E8BBC",
"r. c #1188B7",
"t. c #118FBF",
"y. c #1B8DBA",
"u. c #2A8BB4",
"i. c #3C94BA",
"p. c #118FC0",
"a. c #1493C3",
"s. c #1799C8",
"d. c #1A9CCC",
"f. c #2096C3",
"g. c #1EA3D2",
"h. c #20A6D5",
"j. c #24ACDC",
"k. c #28AAD8",
"l. c #33AAD4",
"z. c #39B2DC",
"x. c #2AB4E2",
"c. c #2FBBE9",
"v. c #33BBE8",
"b. c #5BA5C4",
"n. c #55A1C2",
"m. c #47ACD2",
"M. c #67AECC",
"N. c #61B9D9",
"B. c #7AB7D0",
"V. c #42BEE8",
"C. c #3CC0EB",
"Z. c #7CC1DB",
"A. c #4BC3EA",
"S. c #50C0E6",
"D. c #F1AC81",
"F. c #F5B186",
"G. c #F2B089",
"H. c #F4B690",
"J. c #CD9DA6",
"K. c #E68FA4",
"L. c #EA91A7",
"P. c #CDAFB5",
"I. c #C4B1B6",
"U. c #CAB6BA",
"Y. c #C5B8BC",
"T. c #E6B3BF",
"R. c #ACCC86",
"E. c #B2D28B",
"W. c #BFDB9D",
"Q. c #F8C59A",
"!. c #F9CA99",
"~. c #DDE78B",
"^. c #D3E385",
"/. c #E8C3AE",
"(. c #F6C3A4",
"). c #F8CCB0",
"_. c #F2CAB2",
"`. c #F5D2BE",
"'. c #F9D3BA",
"]. c #C9E1AB",
"[. c #FDE3A1",
"{. c #F9E7B3",
"}. c #FCE9B5",
"|. c #E9F0B9",
" X c #F0BEC9",
".X c #8CC0D6",
"XX c #8BC3D9",
"oX c #9EC9DC",
"OX c #A8CEDF",
"+X c #93CAE0",
"@X c #94DBF2",
"#X c #AFD4E3",
"$X c #A4E1F5",
"%X c #B4E7F8",
"&X c #B6E8F8",
"*X c #CACACC",
"=X c #CFD0D2",
"-X c #D2D3D5",
";X c #D6D6D8",
":X c #D7D8DA",
">X c #DADBDC",
",X c #E8D5CA",
"<X c #F3D6C4",
"1X c #FADAC6",
"2X c #EDDFD7",
"3X c #E9DFDA",
"4X c #F2D6DC",
"5X c #D7E8C2",
"6X c #FEEDC0",
"7X c #FCEEC9",
"8X c #E8F1C6",
"9X c #E1ECD3",
"0X c #F3E5DC",
"qX c #FAE6DA",
"wX c #E6F2D8",
"eX c #F1F6D4",
"rX c #FFF5DD",
"tX c #F5F8DB",
"yX c #DEDEE1",
"uX c #EBDDE1",
"iX c #F3DDE3",
"pX c #DFE0E2",
"aX c #D5E7EF",
"sX c #C3E6F2",
"dX c #CFE7F0",
"fX c #CDEBF6",
"gX c #CDEFF9",
"hX c #DEEDF3",
"jX c #DAF3FC",
"kX c #E3E2E4",
"lX c #E6E6E8",
"zX c #EBEBEC",
"xX c #FAEBE2",
"cX c #F4EDE9",
"vX c #F8EBEE",
"bX c #F4E7E6",
"nX c #F4F8E4",
"mX c #FCF2EC",
"MX c #F5F9E9",
"NX c #F1F4ED",
"BX c #EFEFF0",
"VX c #E3EEF3",
"CX c #E4F0F6",
"ZX c #EDF3F7",
"AX c #E9F6FB",
"SX c #ECF9FE",
"DX c #E4F4FA",
"FX c #F4F4F5",
"GX c #FAF7F5",
"HX c #F6F9F3",
"JX c #F8FBF3",
"KX c #F7F7F8",
"LX c #F8F7F8",
"PX c #F4F8FA",
"IX c #FDFDFD",
"UX c None",
/* pixels */
"UXUXUXUXUXUXUXUXUXUXUXUX~ ^ ^ Y U W ! #.UXUXUXUXUXUXUXUXUXUXUXUX",
"UXUXUXUXUXUXUXUXUXW I L K / -.~.|.eXnXnXMXJXIXUXUXUXUXUXUXUXUXUX",
"UXUXUXUXUXUXUXE P J J Q ~.tXIXIXIXIXIXIXIXIXIXIXIXUXUXUXUXUXUXUX",
"UXUXUXUXUXUXT F G R ^.MXIXIXIXIXSXgX&X&XjXIXIXIXIXIXUXUXUXUXUXUX",
"UXUXUXUXUXv z c @.8XIXIXIXIXAX@XA.v.c.c.C.$XIXIXIXIXIXUXUXUXUXUX",
"UXUXUXUXg d x $.nXIXIXIXIXfXV.x.x.x.x.x.x.V.SXIXIXIXIX7XUXUXUXUX",
"UXUXUXj f s *.MXIXIXIXIXsXz.j.j.j.j.j.j.x.x.gXIXIXIXIXrX}.UXUXUX",
"UXUXl f f +.MXIXIXIXIXfXl.g.g.g.h.h.h.h.g.k.fXIXIXIXIXrX[.{.UXUX",
"UXUXh f b wXIXIXIXIXAXm.s.s.s.s.d.d.d.d.d.l.DXIXIXIXIX}.>.,.UXUX",
"UXk f f ].IXIXIXIXIXZ.a.p.p.a.a.a.a.s.a.s.N.IXIXIXIXIX,.( ;.:.UX",
"UXh f &.JXIXIXIXIXdXy.q.w.w.w.e.e.e.e.p.s.dXIXIXIXIXrXS Z A A UX",
"UXf h 5XIXIXIXIXIXM.2.2.2.4.4.4.0.0.0.r.+XIXIXIXIXIX>.M C C C UX",
"k f +.HXIXIXIXIXVX9.<.<.<.<.<.1.2.1.8.XXIXIXIXIXIX!.m m M M M V ",
"k f W.IXLXIXLXIXoX<.<.<.<.<.<.<.<.u.#XIXIXIXIXIXQ.2 ; ; n n n B ",
"j j 9XLXIXIXIXIXb.<.<.<.<.<.<.9.B.CXIXIXIXIXmXO.1 = - - - - - 4 ",
"j ) NXLXPXLXLXZXu.<.<.<.3.i..XhXIXIXIXIXIX'.' > = = = - = = - 3 ",
"h %.KXPXLXLXIXVXn.b.B.OXaXFXIXIXIXIXIX1X| < * * * > = = = = = 3 ",
"k =.KXKXKXKXKXKXLXLXIXIXLXIXIXLXxX(.[ < * * * * * * * * * * * < ",
"k E.FXKXKXKXKXKXLXLXLXvXxX`.H.{ 6 * * * * * * * * * * * * * = D ",
"k E.FXFXKXKXKX<X[ ` 0 7 5 > * * * * * * * * * * * * * * * > ..qX",
"UXE.BXFXFXFXFX_.> * * * * * * * * * * * * * * * * * * * < F.GXUX",
"UXR.zXzXFXFXFX<X, * * * * * * * * * * * * * * * * * * 8 ).IXIXUX",
"UXR.kXlXzXBXBXbX7 * * * * * * * * * * * * * * * * > | qXIXIXIXUX",
"UXUX>X>XkXlXzXBX .* * * * * * * * * * * * * * * 8 (.GXIXIXIXUXUX",
"UXUX;X;X>XyXlXlX,X7 > * * * * * * * > * * > 7 D.xXIXIXIXvX4XUXUX",
"UXUXUX-X-X;X>XpXkX/.7 * * * * * * * * > 0 G.qXLXIXLXLX Xa UXUXUX",
"UXUXUXUX*X=X-X:XyXyX,Xo.0 7 5 5 9 ` D.`.cXLXLXLXLXiX7.r UXUXUXUX",
"UXUXUXUXUX*X*X-X-X;XyXkXkX3X3XbXcXBXFXFXKXLXKXbXL.u % UXUXUXUXUX",
"UXUXUXUXUXUX*X*X*X=X;X>XyXkXlXzXBXBXFXFXFXiXL.i % & UXUXUXUXUXUX",
"UXUXUXUXUXUXUX*X*X*X*X-X;X:XyXyXlXzX4X X5.y $ # e UXUXUXUXUXUXUX",
"UXUXUXUXUXUXUXUXUX*XY.I.Y.U.P.J.6.p q + + @ w UXUXUXUXUXUXUXUXUX",
"UXUXUXUXUXUXUXUXUXUXUXUXq O O   X . . @ UXUXUXUXUXUXUXUXUXUXUXUX"
};
