/* XPM */
static char *_____________[] = {
/* columns rows colors chars-per-pixel */
"64 64 256 2",
"   c #A80A22",
".  c #BB0629",
"X  c #B50928",
"o  c #A31628",
"O  c #BA1836",
"+  c #AA283A",
"@  c #B2283D",
"#  c #AA313F",
"$  c #C3042D",
"%  c #C6052F",
"&  c #CD0432",
"*  c #CC0B37",
"=  c #D20234",
"-  c #D40D3C",
";  c #C8183D",
":  c #EA630E",
">  c #EC6B0B",
",  c #EE730A",
"<  c #EF7908",
"1  c #F07D08",
"2  c #F07E07",
"3  c #EB6613",
"4  c #EB6A1A",
"5  c #EC6B10",
"6  c #EF781B",
"7  c #EC6F21",
"8  c #EB7A2B",
"9  c #EC7328",
"0  c #EC7C37",
"q  c #BA2B44",
"w  c #B43B4D",
"e  c #AC3243",
"r  c #CB1C42",
"t  c #D51A46",
"y  c #C62142",
"u  c #D12D53",
"i  c #C83655",
"p  c #D13255",
"a  c #BD5667",
"s  c #B14753",
"d  c #D64D6B",
"f  c #74B41E",
"g  c #7CB61C",
"h  c #71B222",
"j  c #76B42B",
"k  c #79B62D",
"l  c #7AB632",
"z  c #7EB739",
"x  c #7FB939",
"c  c #7CB833",
"v  c #8CBD16",
"b  c #82B91A",
"n  c #87BA17",
"m  c #91BE16",
"M  c #81B93D",
"N  c #84BA3B",
"B  c #93BF3F",
"V  c #F18406",
"C  c #F28C05",
"Z  c #F1860A",
"A  c #F49404",
"S  c #F69D02",
"D  c #F28B16",
"F  c #F29613",
"G  c #F8AC01",
"H  c #F7A301",
"J  c #FAB503",
"K  c #F9B60A",
"L  c #FABD18",
"P  c #ED8639",
"I  c #ED8A2E",
"U  c #F3AB2D",
"Y  c #9FC30F",
"T  c #9CC212",
"R  c #96C012",
"E  c #A4C50E",
"W  c #ACC90C",
"Q  c #A8C70C",
"!  c #BCCE05",
"~  c #B3CA09",
"^  c #B8CC08",
"/  c #ACC918",
"(  c #BACE1A",
")  c #97C330",
"_  c #A8C824",
"`  c #B8CD24",
"'  c #A9C733",
"]  c #B2CC3A",
"[  c #C2D006",
"{  c #C1CF11",
"}  c #C6D327",
"|  c #C6D436",
" . c #C0CF20",
".. c #F9C12C",
"X. c #FBC436",
"o. c #8ABD4C",
"O. c #87BB44",
"+. c #8BBD50",
"@. c #ED8748",
"#. c #ED894C",
"$. c #EC8E54",
"%. c #F19357",
"&. c #F09256",
"*. c #EE9A66",
"=. c #F19C67",
"-. c #F2A16E",
";. c #EFA577",
":. c #F2A575",
">. c #97C54E",
",. c #ADCC52",
"<. c #9FCA69",
"1. c #CADB5A",
"2. c #FBCB49",
"3. c #FACE59",
"4. c #D0DF69",
"5. c #C0D866",
"6. c #FCD56B",
"7. c #FBCF73",
"8. c #D6E16A",
"9. c #0074A5",
"0. c #0177A8",
"q. c #047BAC",
"w. c #0B7AA9",
"e. c #137EAC",
"r. c #067FB0",
"t. c #D07286",
"y. c #E5748F",
"u. c #E36080",
"i. c #0780B1",
"p. c #0A84B5",
"a. c #0B87B8",
"s. c #0E8BBC",
"d. c #108EBF",
"f. c #1687B6",
"g. c #1680AD",
"h. c #288BB4",
"j. c #3691B8",
"k. c #4499BD",
"l. c #1493C4",
"z. c #1A9CCB",
"x. c #1798C8",
"c. c #118FC0",
"v. c #299BC6",
"b. c #1CA0CF",
"n. c #1EA3D2",
"m. c #21A6D5",
"M. c #22A8D7",
"N. c #24ACDB",
"B. c #28B0DF",
"V. c #39ABD4",
"C. c #2AB4E3",
"Z. c #2DB8E7",
"A. c #2FBBE9",
"S. c #27B1E0",
"D. c #34BBE7",
"F. c #54A1C3",
"G. c #5ABCDF",
"H. c #50ADD1",
"J. c #71B4CF",
"K. c #3FC0EA",
"L. c #72C1DE",
"P. c #52C3E9",
"I. c #67CFF0",
"U. c #71CDEC",
"Y. c #BE9CA2",
"T. c #F3AC81",
"R. c #EDB38E",
"E. c #F5BD9B",
"W. c #F1B896",
"Q. c #F0B28B",
"!. c #C69AA2",
"~. c #E697A9",
"^. c #E08CA0",
"/. c #C3A7AC",
"(. c #C5ACB1",
"). c #D8ADB6",
"_. c #E4B0AA",
"`. c #C48A94",
"'. c #B5D194",
"]. c #FBDC86",
"[. c #F8DC91",
"{. c #D5E593",
"}. c #FDE39D",
"|. c #C5DFA7",
" X c #C6D7B1",
".X c #F6C6A6",
"XX c #F4CBB3",
"oX c #F8CFB6",
"OX c #F8D4BA",
"+X c #F1CFAF",
"@X c #D7E9B6",
"#X c #E5EEAD",
"$X c #FBE4AB",
"%X c #FEEAB6",
"&X c #E5EEB0",
"*X c #87BFD6",
"=X c #EEBCC9",
"-X c #8CC1D7",
";X c #98CADE",
":X c #A4CDDE",
">X c #9DD6EB",
",X c #9ADAF0",
"<X c #93D4EB",
"1X c #ADD3E4",
"2X c #B8D8E5",
"3X c #ADDFF0",
"4X c #A8E2F5",
"5X c #B9E8F8",
"6X c #C6C7C9",
"7X c #C7C8CA",
"8X c #CACBCD",
"9X c #CECFD1",
"0X c #CFD0D2",
"qX c #D2D3D5",
"wX c #D6D6D9",
"eX c #DADBDD",
"rX c #D7D8DA",
"tX c #D8D4CB",
"yX c #F8DAC7",
"uX c #EAD9D7",
"iX c #F2D2DA",
"pX c #F2CDD7",
"aX c #D9E9C4",
"sX c #DEE8D3",
"dX c #FCEEC5",
"fX c #EAF2C9",
"gX c #E5E7DB",
"hX c #F7E4D8",
"jX c #E8F2D6",
"kX c #F7F6DD",
"lX c #F0F5CD",
"zX c #C3DEE9",
"xX c #DEDFE1",
"cX c #DAE4E8",
"vX c #CAEAF4",
"bX c #DAECF4",
"nX c #DFF5FC",
"mX c #E3E3E5",
"MX c #E7E7E8",
"NX c #EBEBEC",
"BX c #E9E9E4",
"VX c #F6EBE7",
"CX c #F4F8E3",
"ZX c #FCF3EC",
"AX c #F5F8EC",
"SX c #EFEFF0",
"DX c #E8F4F9",
"FX c #F4F4F6",
"GX c #FBF5F4",
"HX c #FCFBF6",
"JX c #F7F7F8",
"KX c #F4FAFC",
"LX c #FDFDFE",
"PX c #F7F8F6",
"IX c #EFF0E8",
"UX c None",
/* pixels */
"UXUXUXUXUXUXUXUXUXUXUXUXUXUXUXUXUXUXUXUXUXUXUXUXUXUX| } } } ( ` ` ( ` ] ] ] UXUXUXUXUXUXUXUXUXUXUXUXUXUXUXUXUXUXUXUXUXUXUXUXUXUX",
"UXUXUXUXUXUXUXUXUXUXUXUXUXUXUXUXUXUXUXUXUXUX| ( { [ [ [ [ ! ! ! ~ ^ W W / / ' ' ,.,.UXUXUXUXUXUXUXUXUXUXUXUXUXUXUXUXUXUXUXUXUXUX",
"UXUXUXUXUXUXUXUXUXUXUXUXUXUXUXUXUXUXUXUX` ^ ^ ! ! [ [ ! [ !  .| 4.{.#XfXkXCXCXCXCXCXjXAXUXUXUXUXUXUXUXUXUXUXUXUXUXUXUXUXUXUXUXUX",
"UXUXUXUXUXUXUXUXUXUXUXUXUXUXUXUXUX,./ W ^ ^ ^ ^ ! ! ^ } 8.#XCXHXLXLXLXLXLXLXLXLXLXLXLXLXLXLXPXUXUXUXUXUXUXUXUXUXUXUXUXUXUXUXUXUX",
"UXUXUXUXUXUXUXUXUXUXUXUXUXUXUXUX_ E Q Q W W ~ ^ ( 1.&XAXLXLXLXLXLXLXLXLXLXLXLXLXLXLXLXLXLXLXLXLXUXUXUXUXUXUXUXUXUXUXUXUXUXUXUXUX",
"UXUXUXUXUXUXUXUXUXUXUXUXUXUX' T Y E E Q Q Q ( 4.lXLXLXLXLXLXLXLXLXLXLXLXLXLXLXLXLXLXLXLXLXLXLXLXLXPXUXUXUXUXUXUXUXUXUXUXUXUXUXUX",
"UXUXUXUXUXUXUXUXUXUXUXUXUXR m T Y Y E E W 1.lXLXLXLXLXLXLXLXLXLXLXLXLXLXLXLXLXLXLXLXLXLXLXLXLXLXLXLXLXUXUXUXUXUXUXUXUXUXUXUXUXUX",
"UXUXUXUXUXUXUXUXUXUXUX>.m m m m R T Y ' #XLXLXLXLXLXLXLXLXLXLXLXKXDX5X,XU.I.I.U.4XDXLXLXLXLXLXLXLXLXLXLXPXUXUXUXUXUXUXUXUXUXUXUX",
"UXUXUXUXUXUXUXUXUXUXB n n v m m R T 5.CXLXLXLXLXLXLXLXLXLXLXLX5XU.K.A.A.A.A.A.A.A.P.4XKXLXLXLXLXLXLXLXLXLXLXUXUXUXUXUXUXUXUXUXUX",
"UXUXUXUXUXUXUXUXUXO.g n n v v m ) {.HXLXLXLXLXLXLXLXLXLXLXvXI.A.A.A.A.A.A.A.A.A.A.A.K.5XLXLXLXLXLXLXLXLXLXLXdXUXUXUXUXUXUXUXUXUX",
"UXUXUXUXUXUXUXUXO.b g b b n v ) @XLXLXLXLXLXLXLXLXLXLXKX,XD.S.Z.C.C.C.C.Z.C.Z.Z.Z.Z.Z.P.KXLXLXLXLXLXLXLXLXLXkX[.UXUXUXUXUXUXUXUX",
"UXUXUXUXUXUXUXo.j g g g b b ) fXLXLXLXLXLXLXLXLXLXLXDXU.B.B.S.S.S.C.S.S.S.C.S.C.S.Z.S.A.bXLXLXLXLXLXLXLXLXLXHX}.$XUXUXUXUXUXUXUX",
"UXUXUXUXUXUXUXj f f f g g ) jXLXLXLXLXLXLXLXLXLXLXnXP.N.B.N.N.B.N.B.N.B.B.B.S.S.S.S.S.S.4XLXLXLXLXLXLXLXLXLXLX%X$XUXUXUXUXUXUXUX",
"UXUXUXUXUXUXl h f f f f >.fXLXLXLXLXLXLXLXLXLXLXDXG.m.m.n.M.N.n.M.N.N.N.M.N.N.N.N.N.N.B.,XLXLXLXLXLXLXLXLXLXLXdX%XdXUXUXUXUXUXUX",
"UXUXUXUXUXM h h h h h N aXLXLXLXLXLXLXLXLXLXLXKXG.m.m.m.n.n.n.n.n.n.M.M.n.N.M.N.n.N.N.N.,XLXLXLXLXLXLXLXLXLXLXdX}.%XdXUXUXUXUXUX",
"UXUXUXUXUXh h h h h k @XLXLXLXLXLXLXLXLXLXLXKXL.v.z.z.z.b.n.n.n.n.n.n.n.n.n.n.n.n.N.n.M.4XLXLXLXLXLXLXLXLXLXLX%X].$X$XUXUXUXUXUX",
"UXUXUXUXc h h h h j '.LXLXLXLXLXLXLXLXLXLXLX>Xv.x.z.z.z.z.z.z.b.z.z.z.z.b.z.n.z.b.n.v.m.vXLXLXLXLXLXLXLXLXLXLX}.7.].].}.UXUXUXUX",
"UXUXUXo.h h h h h <.HXLXLXLXLXLXLXLXLXLXLXvXv.l.l.l.x.l.x.x.x.x.x.z.z.z.z.z.z.z.z.z.b.V.KXLXLXLXLXLXLXLXLXLXLX6.3.6.6.6.7.UXUXUX",
"UXUXUXl h h h h N jXLXLXLXLXLXLXLXLXLXLXKXH.l.c.l.l.l.l.l.l.l.l.l.x.l.x.x.x.x.x.x.x.x.L.LXLXLXLXLXLXLXLXLXLXkX2.2.2.2.2.3.UXUXUX",
"UXUXUXh h h h j |.LXLXLXLXLXLXLXLXLXLXLX;Xs.s.c.c.a.c.c.s.c.c.c.c.c.c.l.c.l.l.l.l.l.z.vXLXLXLXLXLXLXLXLXLXLX}.L ....X.X.X.UXUXUX",
"UXUXz h h h h >.PXLXLXLXLXLXLXLXLXLXLXDXv.a.a.a.a.s.a.a.s.s.s.s.s.s.c.s.d.c.c.c.c.l.G.LXLXLXLXLXLXLXLXLXLXHX2.K K L L L L ..UXUX",
"UXUXj h h h k aXLXLXLXLXLXLXLXLXLXLXLXL.p.i.p.p.p.p.a.p.p.a.a.a.a.s.s.s.a.s.s.s.s.v.bXLXLXLXLXLXLXLXLXLXLX$XG G J J K J J K UXUX",
"UXo.h h h h <.KXLXLXLXLXLXLXLXLXLXLXbXh.q.i.i.q.r.r.i.r.i.i.r.p.i.p.p.i.p.a.a.a.d.1XLXLXLXLXLXLXLXLXLXLXZXU H H G G G G G G U UX",
"UXM h h h j aXLXLXLXLXLXLXLXLXLXLXLX-Xq.0.0.0.q.q.q.q.q.q.r.r.q.r.r.r.i.i.i.i.f.;XLXLXLXLXLXLXLXLXLXLXLX7.C A S S H S H S H U UX",
"UXj h h h >.PXKXLXLXLXLXLXLXLXLXLXKXj.9.9.9.9.9.9.9.9.9.9.0.0.q.q.q.q.q.q.q.p.-XLXLXLXLXLXLXLXLXLXLXLX+XZ C C C A A A A A A F UX",
"UXj h h h |.LXLXLXLXLXPXLXLXLXJXLX2Xw.9.9.9.9.9.9.9.9.9.9.9.0.9.9.0.9.0.0.g.:XLXLXLXLXLXLXLXLXLXLXLXOXD V V C C C C A C C C Z UX",
"o.h h h x BXLXLXLXLXLXPXLXLXLXLXJXJ.9.9.9.9.9.9.9.9.9.9.9.9.9.9.9.9.9.9.j.zXLXLXLXLXLXLXLXLXLXLXLXOXD , 1 1 2 V V V V V V V Z P ",
"O.h h h <.JXJXJXLXPXLXLXLXJXLXLXSXh.9.9.9.9.9.9.9.9.9.9.9.9.9.9.9.9.w.J.DXLXLXLXLXLXLXLXLXLXLXLX+X6 , < < < < < 1 1 1 1 < Z Z I ",
"z h h h |.KXJXLXKXPXJXLXLXLXLXLXzXw.9.9.9.9.9.9.9.9.9.9.9.9.9.9.0.k.2XLXLXLXLXLXLXLXLXLXLXLXZXT.6 , , , < , < < < < < < < < < I ",
"O.h h k jXPXLXJXLXPXLXJXLXJXJXLX*X0.9.9.9.9.9.9.9.9.9.9.9.9.w.j.:XKXLXLXLXLXLXLXLXLXLXLXLXhX%.> > > > > > > > < , , , , < , > I ",
"z h h o.IXPXPXLXJXJXLXLXJXLXLXKXF.9.9.9.9.9.9.9.9.9.9.9.e.F.1XKXLXLXLXLXLXLXLXLXLXLXLXZX.X6 > > : > > > > > , , > , , , > > > 8 ",
"z h h <.FXKXLXPXLXJXLXJXLXJXJXFXj.9.9.9.9.9.9.9.9.e.k.-XcXLXLXLXLXLXLXLXLXLXLXLXLXHXyX&.3 : : : > > : > > > > > > > > , > > > I ",
"z h f '.JXJXLXJXLXJXLXJXJXLXKXbXe.9.0.w.w.h.k.J.:XbXJXJXLXLXLXLXLXLXLXLXLXLXLXLXyX-.4 : : : > : : : > > > : > > > > > > > > > 6 ",
"c h f  XJXJXJXJXJXJXJXLXLXJXJXMX*X*X:X2XcXSXJXLXLXLXLXLXLXLXLXLXLXLXLXLXLXLXhX-.4 : : : : : : > > : : : : > > : > : > : : : > 9 ",
"z h j aXJXJXJXJXJXJXJXJXJXJXJXLXJXJXJXJXLXKXLXJXLXLXLXLXLXLXLXLXLXLXLXGXoX%.4 : : : : : 3 : : : : > : > > : > : : > : > > : : 8 ",
"O.h j gXJXJXJXJXJXJXJXJXLXJXJXLXJXLXLXJXLXJXLXJXLXJXLXLXJXLXLXLXGXyXT.P 3 : : : : : : : : : 5 : : : : : : : : > > : > : : > : 8 ",
"O.h c gXFXFXFXJXJXJXJXJXJXJXLXJXJXJXJXLXLXJXLXLXJXLXLXLXSXVX=X;.0 3 : : : : 3 : : r : : : : : : : : : : : : > : : : > : : : > 8 ",
"o.h x BXFXFXJXFXJXJXJXJXJXJXJXJXJXLXJXJXJXJXGXVXhXyXE.;.0 7 3 : 3 : : : : : : : : : : : : : : : : : : > : > : : : : : 3 : : 8 Q.",
"UXh x BXFXFXFXJXFXJXFXJXJXFXFXyXE.W.Q.T.-.%.0 0 7 3 : : : : : : : : : : : : : : : : : : : : : : : : : : : : : : > : 3 : : P yXUX",
"UXk x BXFXFXFXFXFXFXJXJXFXFXFX*.: : : : : 3 3 : : : : : : : : : : : : : : : : : : : : : : : : : : : : : : : : : : : : : %.VXLXUX",
"UXx x gXFXFXFXFXFXFXJXFXJXJXFX*.: : : : : : : : : : : : : : : : : : : : : : : : : : : : : : : : : : : : : : : : : : 3 -.ZXLXLXUX",
"UX>.k rXSXSXFXFXSXFXFXFXFXFXFXT.: : : : : : : : : : : : : : : : : : : : : : : : : : : : : : : : : : : : : : : : : 7 E.LXLXLXPXUX",
"UXUXc aXNXSXSXSXFXFXFXFXFXFXFXW.: : : : : : : : : : : : : : : : : : : : : : : : : : : : : : : : : : : : : : : : 0 OXLXLXLXLXUXUX",
"UXUXO. XMXMXNXSXSXFXSXFXFXFXFXXX3 : : : : : : : : : : : : : : : : : : : : : : : : : : : : : : : : : : : : : : =.VXLXLXLXLXLXUXUX",
"UXUXUX'.cXmXMXNXNXSXSXSXSXFXFXiX7 : : : : : : : : : : : : : : : : : : : : : : : : : : : : : : : : : : : : 9 E.HXLXLXLXLXLXUXUXUX",
"UXUXUX'.xXgXmXmXMXNXNXSXSXFXFXGX0 : : : : : : : : : : : : : : : : : : : : : : : : : : : : : : : : : : : #.hXLXLXLXLXLXLXPXUXUXUX",
"UXUXUX'.rXeXcXxXmXMXMXNXSXSXSXSX_.3 : : : : : : : : : : : : : : : : : : : : : : : : : : : : : : : : 9 E.GXLXLXLXLXLXLXLXPXUXUXUX",
"UXUXUXUXrXeXeXxXxXmXmXMXMXNXSXSXiX0 : : : : : : : : : : : : : : : : : : : : : : : : : : : : : : 4 -.iXLXLXLXLXLXLXLXLXLXUXUXUXUX",
"UXUXUXUXUXwXrXrXeXxXmXmXmXMXMXNXSXR.3 : : : : : : : : : : : : : : : : : : : : : : : : : : : 3 #.OXGXLXLXLXJXLXLXLXLXPXUXUXUXUXUX",
"UXUXUXUXUXqXqXrXrXrXeXxXxXmXmXMXBXmX$.: : : : : : : : : : : : : : : : : : : : : : : : : 3 @.XXGXLXLXLXJXLXLXLXLXLXpX^.UXUXUXUXUX",
"UXUXUXUXUXUXqXqXwXwXrXrXxXxXmXmXmXMXuX@.: : : : : : : : : : : : : : : : : : : : : : 3 $.XXZXJXLXLXJXLXJXJXLXLXLX~.p UXUXUXUXUXUX",
"UXUXUXUXUXUXUX9X0XqXqXrXrXrXxXxXgXcXmXuX*.3 : : : : : : : : : : : : : : : : : 3 9 ;.yXGXJXJXJXLXJXLXJXLXLXLXiXd ; UXUXUXUXUXUXUX",
"UXUXUXUXUXUXUX0X8X9X0XqXrXrXrXrXeXgXmXmXgX_.#.4 : : 3 3 : : : : : 4 3 3 4 0 -.XXVXJXJXJXLXJXJXJXJXLXLXLXVX^.t = p UXUXUXUXUXUXUX",
"UXUXUXUXUXUXUXUX8X8X9X9X0XqXrXrXeXeXrXmXmXmXxXXXT.$.0 9 7 7 9 9 0 0 ;._.yXVXFXFXJXJXJXLXPXJXPXLXJXJXGX=Xd = - u UXUXUXUXUXUXUXUX",
"UXUXUXUXUXUXUXUXUX8X8X8X9X0X0XqXqXrXeXeXxXcXmXmXxXMXmXiXuXuXhXVXVXSXFXFXFXFXFXFXJXJXJXJXJXJXJXLXJXpXu.- = = u UXUXUXUXUXUXUXUXUX",
"UXUXUXUXUXUXUXUXUXUX8X7X7X8X8X0XqXqXwXrXeXeXeXmXxXcXMXMXSXSXSXSXFXFXFXFXFXFXJXJXFXFXJXJXJXJXJXiXy.t = = = u UXUXUXUXUXUXUXUXUXUX",
"UXUXUXUXUXUXUXUXUXUXUX8X7X7X8X8X0X0XqXqXwXrXrXeXxXgXmXmXMXNXNXNXSXSXSXFXFXFXFXFXJXFXJXJXFXpXy.t = = = - p UXUXUXUXUXUXUXUXUXUXUX",
"UXUXUXUXUXUXUXUXUXUXUXUXUX7X7X7X8X8X8XqXqXqXrXrXeXeXcXmXmXmXMXNXNXSXSXSXFXFXFXFXFXKXSX=Xu.t = = = = r UXUXUXUXUXUXUXUXUXUXUXUXUX",
"UXUXUXUXUXUXUXUXUXUXUXUXUXUX8X6X7X7X8X8X8XqXqXqXqXeXeXeXmXmXmXMXMXNXNXSXSXFXFXSXuX~.d * & & & = = u UXUXUXUXUXUXUXUXUXUXUXUXUXUX",
"UXUXUXUXUXUXUXUXUXUXUXUXUXUXUXUX7X7X7X7X8X8X0X0XqXqXrXrXeXeXeXcXmXMXMXNXNXiX).d r & % & & & & r UXUXUXUXUXUXUXUXUXUXUXUXUXUXUXUX",
"UXUXUXUXUXUXUXUXUXUXUXUXUXUXUXUXUX8X7X7X7X7X8X8X9XqXqXqXqXrXeXrXeXqX).t.d O . $ $ $ $ % & r p UXUXUXUXUXUXUXUXUXUXUXUXUXUXUXUXUX",
"UXUXUXUXUXUXUXUXUXUXUXUXUXUXUXUXUXUXUXUX(.Y.Y./.(.(.(./.!.`.t.a w O O X X . . . $ . % y UXUXUXUXUXUXUXUXUXUXUXUXUXUXUXUXUXUXUXUX",
"UXUXUXUXUXUXUXUXUXUXUXUXUXUXUXUXUXUXUXUXUXUXs e + o o           X X X X . . . r y i UXUXUXUXUXUXUXUXUXUXUXUXUXUXUXUXUXUXUXUXUXUX",
"UXUXUXUXUXUXUXUXUXUXUXUXUXUXUXUXUXUXUXUXUXUXUXUXUXUXw e + + @ @ @ @ q q q w UXUXUXUXUXUXUXUXUXUXUXUXUXUXUXUXUXUXUXUXUXUXUXUXUXUX"
};
